<svg version="1.1" xmlns="http://www.w3.org/2000/svg" viewBox="0 0 900 225" aria-label="TEDx Logo">
  <defs>
    <style>
      @import url('https://fonts.googleapis.com/css2?family=Inter:wght@300&amp;display=swap');
      
      .ted-logo {
        fill: #EB0028;
      }
      
      .place-text {
        font-family: 'Inter', 'Helvetica', sans-serif;
        font-weight: 300; 
        font-size: 139.4px; 
        fill: black;
        
        /* MATCHING GENERATOR TYPOGRAPHY */
        letter-spacing: -4.2px; 
        font-kerning: none; /* Fixes the 'VJ' spacing issue */
      }
    </style>
  </defs>

  <g transform="translate(51, 51)">
    
    <g class="ted-logo">
      <polygon points="40.155,115.316 40.155,36.621 10.5,36.621 10.5,10.5 101.379,10.5 101.379,36.621 71.736,36.621 71.736,115.316"/>
      <polygon points="107.444,115.316 107.444,10.5 195.636,10.5 195.636,36.621 139.046,36.621 139.046,50.809 195.636,50.809 195.636,75.008 139.046,75.008 139.046,89.196 195.651,89.196 195.651,115.316"/>
      <path d="M202.122,115.316L202.123,10.5h53c16.15,0,28.495,5.443,36.691,16.181 c8.709,11.404,10.537,25.911,10.537,36.072c0,16.493-4.396,29.399-13.064,38.358c-9.122,9.426-22.757,14.205-40.529,14.205H202.122 L202.122,115.316z M233.723,89.196h13.25c20.689,0,23.778-16.854,23.778-26.896c0-23.825-20.017-25.679-26.152-25.679h-10.876 V89.196L233.723,89.196z"/>
      <polygon points="307.113,74.539 329.45,41.692 307.957,10.296 330.612,10.296 339.748,26.578 349.147,10.296 371.798,10.296 350.312,41.691 372.649,74.538 349.98,74.539 339.748,57.57 329.769,74.539"/>
    </g>

    <text x="393.6" y="115.3" class="place-text">VJCET</text>
    
  </g>
</svg>