<svg width="1758" height="440" viewBox="0 0 1758 440" fill="none" xmlns="http://www.w3.org/2000/svg">
<path d="M679 243L721.264 180.622L680.597 121H723.462L740.748 151.92L758.532 121H801.39L760.736 180.62L803 242.998L760.108 243L740.748 210.775L721.867 243H679Z" fill="#EB0028"/>
<path d="M481 319L481.002 121H581.472C612.087 121 635.489 131.282 651.025 151.566C667.535 173.109 671 200.513 671 219.707C671 250.863 662.667 275.243 646.235 292.166C628.943 309.972 603.096 319 569.406 319H481ZM540.905 269.659H566.022C605.241 269.659 611.097 237.821 611.097 218.851C611.097 173.845 573.152 170.343 561.522 170.343H540.905V269.659Z" fill="#EB0028"/>
<path d="M303 319V121H470V171H363V197H470V243H363V269H470V319H303Z" fill="#EB0028"/>
<path d="M176 319V171H121V121H293V171H237V319H176Z" fill="#EB0028"/>
<g filter="url(#filter0_d_1_2)">
<path d="M872.879 127.273L933.106 297.132H934.8L995.027 127.273H1013.47L943.364 320H924.543L854.434 127.273H872.879ZM1101.86 127.273H1119.46V266.266C1119.39 278.813 1117.13 289.29 1112.68 297.697C1108.23 306.041 1102.08 312.283 1094.24 316.424C1086.39 320.565 1077.39 322.635 1067.23 322.635C1057.25 322.635 1048.34 320.784 1040.5 317.083C1032.66 313.381 1026.48 308.174 1021.96 301.461C1017.51 294.748 1015.28 286.875 1015.28 277.841H1032.6C1032.6 283.55 1034.1 288.6 1037.11 292.992C1040.13 297.321 1044.23 300.708 1049.44 303.155C1054.71 305.602 1060.64 306.825 1067.23 306.825C1074.07 306.825 1080.06 305.382 1085.2 302.496C1090.41 299.611 1094.49 295.188 1097.44 289.228C1100.38 283.205 1101.86 275.551 1101.86 266.266V127.273ZM1329.54 187.5H1311.85C1310.53 180.913 1308.15 174.827 1304.7 169.244C1301.31 163.597 1297.05 158.672 1291.9 154.469C1286.76 150.266 1280.92 147.003 1274.4 144.682C1267.87 142.361 1260.82 141.2 1253.22 141.2C1241.05 141.2 1229.95 144.368 1219.91 150.705C1209.94 157.041 1201.94 166.358 1195.91 178.654C1189.95 190.888 1186.97 205.882 1186.97 223.636C1186.97 241.516 1189.95 256.573 1195.91 268.807C1201.94 281.04 1209.94 290.326 1219.91 296.662C1229.95 302.936 1241.05 306.072 1253.22 306.072C1260.82 306.072 1267.87 304.912 1274.4 302.591C1280.92 300.269 1286.76 297.038 1291.9 292.898C1297.05 288.694 1301.31 283.77 1304.7 278.123C1308.15 272.477 1310.53 266.36 1311.85 259.773H1329.54C1327.98 268.619 1325.03 276.868 1320.7 284.522C1316.43 292.114 1310.97 298.764 1304.32 304.473C1297.74 310.182 1290.15 314.636 1281.55 317.836C1272.96 321.035 1263.51 322.635 1253.22 322.635C1237.04 322.635 1222.67 318.588 1210.12 310.495C1197.58 302.34 1187.73 290.859 1180.58 276.053C1173.49 261.247 1169.94 243.775 1169.94 223.636C1169.94 203.498 1173.49 186.026 1180.58 171.22C1187.73 156.414 1197.58 144.964 1210.12 136.871C1222.67 128.716 1237.04 124.638 1253.22 124.638C1263.51 124.638 1272.96 126.238 1281.55 129.437C1290.15 132.574 1297.74 137.028 1304.32 142.8C1310.97 148.509 1316.43 155.159 1320.7 162.75C1325.03 170.342 1327.98 178.591 1329.54 187.5ZM1378.83 320V127.273H1490.63V143.082H1396.43V215.637H1484.7V231.447H1396.43V304.19H1492.51V320H1378.83ZM1532.45 143.082V127.273H1672.2V143.082H1611.13V320H1593.53V143.082H1532.45Z" fill="white"/>
</g>
<defs>
<filter id="filter0_d_1_2" x="850.434" y="124.638" width="825.766" height="205.997" filterUnits="userSpaceOnUse" color-interpolation-filters="sRGB">
<feFlood flood-opacity="0" result="BackgroundImageFix"/>
<feColorMatrix in="SourceAlpha" type="matrix" values="0 0 0 0 0 0 0 0 0 0 0 0 0 0 0 0 0 0 127 0" result="hardAlpha"/>
<feOffset dy="4"/>
<feGaussianBlur stdDeviation="2"/>
<feComposite in2="hardAlpha" operator="out"/>
<feColorMatrix type="matrix" values="0 0 0 0 0 0 0 0 0 0 0 0 0 0 0 0 0 0 0.25 0"/>
<feBlend mode="normal" in2="BackgroundImageFix" result="effect1_dropShadow_1_2"/>
<feBlend mode="normal" in="SourceGraphic" in2="effect1_dropShadow_1_2" result="shape"/>
</filter>
</defs>
</svg>
