<svg width="326" height="114" viewBox="0 0 326 114" fill="none" xmlns="http://www.w3.org/2000/svg">
<path d="M192.499 11.0769C192.362 11.0557 192.223 11.0409 192.082 11.0335C189.827 10.9153 187.904 12.6473 187.786 14.9018C187.668 17.1564 189.399 19.0799 191.654 19.1981C191.795 19.2055 191.935 19.2044 192.074 19.1976L192.018 20.2606C191.881 20.2394 191.742 20.2246 191.601 20.2172C189.346 20.099 187.423 21.8311 187.304 24.0855C187.186 26.3401 188.918 28.2636 191.173 28.3818C191.314 28.3892 191.454 28.389 191.592 28.3822L191.536 29.4462C191.399 29.4249 191.26 29.4102 191.118 29.4028C188.864 29.2847 186.94 31.0167 186.822 33.2711C186.704 35.5256 188.436 37.4491 190.69 37.5673C190.832 37.5748 190.972 37.5747 191.111 37.5679L191.055 38.6299C190.918 38.6087 190.779 38.5949 190.638 38.5875C188.383 38.4695 186.46 40.2014 186.342 42.4558C186.224 44.7102 187.956 46.6337 190.21 46.7521C190.351 46.7595 190.491 46.7583 190.63 46.7515L190.574 47.8165C190.437 47.7953 190.298 47.7805 190.156 47.7731C187.902 47.655 185.978 49.3869 185.86 51.6415C185.742 53.896 187.474 55.8195 189.729 55.9377C189.87 55.9451 190.01 55.944 190.148 55.9372L190.092 57.0002C189.955 56.9789 189.816 56.9642 189.674 56.9567C187.42 56.8386 185.496 58.5708 185.378 60.8251C185.26 63.0796 186.992 65.0031 189.246 65.1213C189.388 65.1287 189.528 65.1287 189.667 65.1218L189.611 66.1858C189.474 66.1646 189.334 66.1508 189.193 66.1434C186.938 66.0254 185.015 67.7573 184.896 70.0117C184.779 72.2659 186.511 74.1886 188.765 74.307C188.906 74.3144 189.047 74.3143 189.185 74.3075L189.13 75.3705C188.993 75.3493 188.854 75.3345 188.712 75.3271C186.458 75.209 184.534 76.9409 184.416 79.1954C184.298 81.45 186.03 83.3735 188.285 83.4917C188.426 83.4991 188.566 83.498 188.704 83.4912L188.648 84.5561C188.511 84.5348 188.372 84.5201 188.23 84.5127C185.976 84.3947 184.052 86.1266 183.934 88.381C183.816 90.6355 185.548 92.559 187.802 92.6773C187.944 92.6847 188.084 92.6836 188.223 92.6768L187.745 101.79L14.2878 92.6998C6.39683 92.2862 0.335034 85.5539 0.748582 77.6629L1.61647 61.1027C8.65935 60.3903 14.3249 54.6324 14.707 47.3441C15.089 40.0556 10.0565 33.7353 3.12644 32.2906L4.06992 14.288C4.48347 6.39706 11.2158 0.335256 19.1067 0.748803L192.564 9.83932L192.499 11.0769Z" fill="#00CC68"/>
<path d="M192.594 11.2832C192.732 11.2618 192.872 11.2481 193.014 11.2407C195.268 11.1226 197.191 12.8537 197.31 15.108C197.428 17.3625 195.696 19.286 193.441 19.4043C193.3 19.4117 193.159 19.4117 193.02 19.4048L193.076 20.4668C193.213 20.4455 193.353 20.4318 193.495 20.4243C195.749 20.3063 197.673 22.0382 197.791 24.2927C197.909 26.547 196.177 28.4707 193.923 28.5889C193.781 28.5964 193.64 28.5954 193.501 28.5885L193.557 29.6525C193.694 29.6311 193.835 29.6174 193.976 29.61C196.231 29.4921 198.154 31.2239 198.272 33.4783C198.39 35.7326 196.658 37.6562 194.404 37.7746C194.262 37.782 194.121 37.781 193.983 37.7742L194.038 38.8381C194.176 38.8168 194.316 38.803 194.458 38.7956C196.712 38.6775 198.636 40.4094 198.754 42.664C198.872 44.9183 197.14 46.842 194.886 46.9602C194.744 46.9676 194.603 46.9667 194.464 46.9598L194.52 48.0238C194.657 48.0025 194.797 47.9887 194.938 47.9813C197.193 47.8631 199.116 49.5951 199.234 51.8496C199.352 54.1041 197.62 56.0277 195.366 56.1459C195.224 56.1533 195.084 56.1523 194.945 56.1454L195.001 57.2084C195.138 57.1871 195.279 57.1724 195.42 57.1649C197.675 57.047 199.598 58.779 199.717 61.0333C199.835 63.2877 198.103 65.2111 195.848 65.3295C195.706 65.3369 195.566 65.337 195.427 65.3301L195.483 66.3941C195.62 66.3727 195.76 66.358 195.902 66.3506C198.156 66.2324 200.08 67.9645 200.198 70.2189C200.316 72.4735 198.584 74.397 196.33 74.5151C196.188 74.5226 196.047 74.5226 195.908 74.5157L195.964 75.5777C196.101 75.5564 196.241 75.5427 196.383 75.5352C198.638 75.4171 200.561 77.149 200.679 79.4036C200.797 81.6581 199.065 83.5817 196.811 83.6998C196.669 83.7072 196.528 83.7063 196.389 83.6994L196.445 84.7644C196.583 84.743 196.723 84.7283 196.864 84.7209C199.119 84.6027 201.043 86.3347 201.161 88.5892C201.279 90.8437 199.547 92.7673 197.292 92.8854C197.15 92.8929 197.01 92.8919 196.871 92.885L197.349 101.999L310.893 96.0479C318.784 95.6344 324.846 88.902 324.432 81.0111L323.443 62.1376C322.983 62.206 322.516 62.2546 322.042 62.2794C313.991 62.7014 307.123 56.5168 306.701 48.4658C306.279 40.4149 312.463 33.5461 320.514 33.1241C320.988 33.0993 321.458 33.0979 321.922 33.1178L321.111 17.6362C320.697 9.7452 313.965 3.6834 306.074 4.09695L192.53 10.0476L192.594 11.2832Z" fill="#00CC68"/>
<circle cx="193.656" cy="35.7293" r="3.36869" fill="#00CC68"/>
<circle cx="194.78" cy="55.941" r="3.36869" fill="#00CC68"/>
<circle cx="189.159" cy="86.26" r="3.36869" fill="white"/>
<ellipse cx="194.046" cy="45.3341" rx="3.36869" ry="1.68434" transform="rotate(-23.0122 194.046 45.3341)" fill="#00CC68"/>
<ellipse cx="192.922" cy="76.7758" rx="3.36869" ry="1.68434" transform="rotate(-23.0122 192.922 76.7758)" fill="#00CC68"/>
<ellipse cx="188.428" cy="110.463" rx="3.36869" ry="1.68434" transform="rotate(21.9427 188.428 110.463)" fill="#00CC68"/>
<ellipse cx="199.627" cy="108.637" rx="3.36869" ry="1.68434" transform="rotate(-34.2695 199.627 108.637)" fill="white"/>
<path d="M33.607 62.188L33.8953 38.5824L40.5385 38.6636L46.869 56.0767L53.4204 38.8209L59.9288 38.9004L59.6405 62.5059L54.8182 62.447L55.0114 46.6313L48.6808 62.3721L44.5667 62.3218L38.6224 46.4312L38.4292 62.2469L33.607 62.188ZM79.8757 58.7395L80.4152 58.7461L80.3662 62.759L77.9382 62.7294C75.4765 62.6993 74.7153 61.5096 74.7692 59.8576C73.5317 61.7649 71.7646 62.8563 69.0668 62.8234C65.3236 62.7777 62.6477 60.9575 62.6881 57.6527C62.7329 53.977 65.5237 51.92 70.7169 51.9834L74.1566 52.0254L74.1669 51.1823C74.1858 49.6311 73.0853 48.6059 71.0957 48.5816C69.241 48.5589 67.983 49.3867 67.765 50.6657L63.1788 50.6097C63.5572 47.2416 66.6868 45.0538 71.273 45.1098C76.129 45.1691 78.9016 47.3615 78.851 51.5094L78.776 57.6468C78.7649 58.5573 79.1338 58.7304 79.8757 58.7395ZM74.1137 55.5325L74.1179 55.1953L70.6445 55.1529C68.6549 55.1286 67.4984 55.9239 67.4807 57.3739C67.4659 58.5879 68.4344 59.3755 70.0193 59.3949C72.5147 59.4253 74.0512 57.8926 74.1137 55.5325ZM82.2056 62.7815L82.4939 39.176L87.2487 39.234L87.0824 52.8578L93.9503 45.5891L99.3121 45.6546L92.9903 52.3903L99.4377 62.9919L93.941 62.9248L89.6427 55.8571L87.0119 58.6243L86.9605 62.8396L82.2056 62.7815ZM108.288 63.3024C102.522 63.232 99.0909 59.7162 99.1563 54.3543C99.2222 48.9588 102.806 45.4949 108.168 45.5604C113.361 45.6238 116.829 48.904 116.834 53.9969C116.828 54.5027 116.787 55.0756 116.679 55.6139L104.101 55.4603L104.098 55.6963C104.169 58.1593 105.736 59.6624 108.13 59.6917C110.052 59.7151 111.411 58.8886 111.836 57.2748L116.523 57.3321C115.942 60.6977 112.908 63.3588 108.288 63.3024ZM104.24 52.3591L112.063 52.4546C111.752 50.326 110.316 49.128 108.158 49.1017C106.101 49.0765 104.535 50.3053 104.24 52.3591ZM119.691 63.2393L119.979 39.6338L126.622 39.7149L132.953 57.128L139.504 39.8722L146.013 39.9517L145.724 63.5572L140.902 63.4983L141.095 47.6826L134.765 63.4234L130.65 63.3731L124.706 47.4825L124.513 63.2982L119.691 63.2393ZM154.376 63.7641L147.912 46.2482L152.97 46.3099L157.035 58.7037L161.3 46.4117L166.392 46.4739L158.461 66.1749C157.347 69.0281 156.453 70.4337 153.755 70.4008L149.136 70.3443L149.185 66.3314L151.815 66.3635C153.029 66.3783 153.437 66.0798 153.924 64.9053L154.376 63.7641Z" fill="white"/>
<path d="M221.427 66.1645L220.271 42.5856L229.871 42.1149C234.991 41.8639 238.543 44.7624 238.778 49.5456C239.011 54.295 235.759 57.5271 230.639 57.7781L226.091 58.001L226.48 65.9168L221.427 66.1645ZM229.606 46.3486L225.53 46.5484L225.885 53.7905L229.961 53.5907C232.319 53.4751 233.767 52.0197 233.658 49.7966C233.547 47.5397 231.964 46.233 229.606 46.3486ZM257.299 60.3878L257.838 60.3614L258.035 64.3698L255.61 64.4887C253.151 64.6093 252.318 63.4683 252.271 61.8161C251.152 63.7956 249.455 64.993 246.761 65.1252C243.022 65.3085 240.239 63.6553 240.077 60.3542C239.897 56.6827 242.557 54.4588 247.745 54.2045L251.18 54.0361L251.139 53.194C251.063 51.6445 249.902 50.6885 247.915 50.7859C246.062 50.8767 244.857 51.7799 244.718 53.0698L240.137 53.2944C240.308 49.9095 243.298 47.5344 247.879 47.3098C252.73 47.072 255.631 49.0907 255.834 53.2339L256.135 59.3644C256.18 60.2739 256.558 60.4242 257.299 60.3878ZM251.352 57.5392L251.336 57.2024L247.866 57.3725C245.879 57.4699 244.773 58.3345 244.844 59.7829C244.904 60.9955 245.918 61.7224 247.502 61.6448C249.994 61.5226 251.434 59.8988 251.352 57.5392ZM258.781 58.5594L263.295 58.3381C263.538 59.8456 264.903 60.8255 267.227 60.7115C269.214 60.6141 270.396 59.9146 270.336 58.702C270.267 57.2873 269.083 57.244 266.269 57.0105C262.204 56.7371 259.026 55.9812 258.851 52.4107C258.683 48.9749 261.57 46.5711 266.018 46.3868C270.667 46.1589 273.967 48.0568 274.376 51.5821L269.829 51.805C269.627 50.4305 268.272 49.6528 266.352 49.747C264.499 49.8378 263.319 50.5709 263.374 51.6825C263.438 52.9962 264.927 53.0583 267.435 53.2392C271.429 53.4486 274.775 54.1962 274.966 58.1036C275.135 61.5394 272.008 63.8874 267.36 64.1153C262.543 64.3514 259.165 62.2548 258.781 58.5594ZM276.314 57.6999L280.828 57.4786C281.071 58.9861 282.436 59.9659 284.76 59.852C286.747 59.7545 287.928 59.0551 287.869 57.8425C287.8 56.4277 286.616 56.3845 283.802 56.151C279.737 55.8776 276.559 55.1217 276.384 51.5512C276.216 48.1154 279.103 45.7115 283.551 45.5273C288.199 45.2994 291.5 47.1972 291.909 50.7225L287.362 50.9454C287.16 49.571 285.805 48.7933 283.885 48.8874C282.032 48.9782 280.852 49.7114 280.907 50.823C280.971 52.1366 282.46 52.1987 284.967 52.3797C288.962 52.589 292.308 53.3367 292.499 57.244C292.668 60.6798 289.541 63.0278 284.893 63.2557C280.076 63.4919 276.698 61.3952 276.314 57.6999Z" fill="white"/>
</svg>
